<?xml version="1.0" encoding="UTF-8" standalone="no"?>
<!-- Created with Inkscape (http://www.inkscape.org/) -->

<svg
   width="67.80761mm"
   height="59.811584mm"
   viewBox="0 0 67.80761 59.811584"
   version="1.1"
   id="svg5"
   xml:space="preserve"
   xmlns:inkscape="http://www.inkscape.org/namespaces/inkscape"
   xmlns:sodipodi="http://sodipodi.sourceforge.net/DTD/sodipodi-0.dtd"
   xmlns="http://www.w3.org/2000/svg"
   xmlns:svg="http://www.w3.org/2000/svg"><sodipodi:namedview
     id="namedview7"
     pagecolor="#505050"
     bordercolor="#ffffff"
     borderopacity="1"
     inkscape:showpageshadow="0"
     inkscape:pageopacity="0"
     inkscape:pagecheckerboard="1"
     inkscape:deskcolor="#505050"
     inkscape:document-units="mm"
     showgrid="false"
     inkscape:zoom="2.587745"
     inkscape:cx="397.06386"
     inkscape:cy="608.2516"
     inkscape:window-width="2560"
     inkscape:window-height="1387"
     inkscape:window-x="-8"
     inkscape:window-y="-8"
     inkscape:window-maximized="1"
     inkscape:current-layer="layer1" /><defs
     id="defs2" /><g
     inkscape:label="Layer 1"
     inkscape:groupmode="layer"
     id="layer1"
     transform="translate(-49.388528,-121.68531)"><path
       style="fill:#000000;stroke-width:0.264583"
       d="m 66.13156,180.09666 c -1.673489,-0.75993 -3.995208,-1.78793 -5.159375,-2.28444 -1.164166,-0.4965 -2.325025,-1.07553 -2.579687,-1.28672 l -0.463021,-0.38398 v -3.53087 -3.53087 l 0.47474,-0.46302 c 0.261106,-0.25466 1.302903,-0.92947 2.315104,-1.49957 l 1.840364,-1.03655 0.74422,-1.477 c 0.409321,-0.81234 0.593868,-1.32816 0.410104,-1.14625 -0.183763,0.1819 -0.56223,0.33072 -0.841036,0.33072 -0.278807,0 -2.18976,0.60481 -4.246562,1.34401 -2.635624,0.94723 -4.301046,1.38774 -5.641288,1.49214 l -1.901646,0.14814 -0.824379,-0.82438 -0.824378,-0.82438 0.08019,-1.39536 0.08019,-1.39537 8.122855,-6.08542 c 4.467571,-3.34698 8.196475,-6.16307 8.286452,-6.25798 0.08998,-0.0949 -0.221706,-2.57684 -0.692632,-5.51539 -0.597071,-3.7257 -0.968606,-5.38595 -1.227514,-5.4853 -0.550796,-0.21136 -2.419355,1.71349 -3.14112,3.23575 -1.3449,2.83651 -0.398149,5.90223 1.507724,4.88223 0.881697,-0.47187 1.828609,0.0625 1.828609,1.0319 0,0.97489 -1.125427,3.00078 -2.142342,3.85646 -1.040939,0.87589 -2.237947,1.06592 -4.372684,0.69417 -2.334724,-0.40657 -3.47369,-1.0241 -4.981001,-2.70059 -1.439626,-1.60121 -2.288874,-3.15981 -2.937569,-5.39125 l -0.45735,-1.57323 0.149321,-3.31026 c 0.175685,-3.89471 0.870899,-6.43291 2.524247,-9.2159 1.196525,-2.01405 5.090178,-6.55346 5.800197,-6.76215 0.255231,-0.075 4.01809,-0.5671 8.361909,-1.09351 l 7.897853,-0.95712 0.436522,0.37577 c 0.240087,0.20668 4.113872,3.55312 8.60841,7.43655 l 8.171889,7.06077 11.970554,-0.0376 c 8.31805,-0.0262 12.13765,0.0518 12.51819,0.25544 1.06673,0.5709 1.36852,1.35353 1.36852,3.54902 0,1.3771 -0.1461,2.39183 -0.43073,2.99165 -0.69097,1.45611 -4.706,5.0271 -6.78037,6.03049 l -1.81009,0.87556 1.31208,0.84196 c 1.36847,0.87815 1.76167,1.4267 1.42568,1.989 -0.34969,0.58523 -4.54156,4.38422 -4.83762,4.38422 -0.15676,0 -1.07465,-0.47625 -2.03976,-1.05833 l -1.75474,-1.05833 h -2.479715 c -1.474327,0 -2.417604,0.1005 -2.326521,0.24787 0.08426,0.13633 1.252143,0.60641 2.595306,1.04463 3.25151,1.06082 5.05526,2.0832 6.79869,3.85357 l 1.44617,1.46851 h 2.02717 c 1.47843,0 2.11625,0.10735 2.35628,0.39656 0.23585,0.28419 0.3243,1.68502 0.31212,4.94347 l -0.017,4.54691 -2.30843,3.38501 -2.30843,3.38502 -0.81557,0.25559 c -0.44857,0.14057 -1.30219,0.38072 -1.89694,0.53365 -0.74125,0.1906 -1.17636,0.48654 -1.38339,0.94092 -0.16611,0.36458 -0.39387,0.66791 -0.50613,0.67407 -0.11226,0.006 -1.71857,0.0237 -3.56957,0.039 -3.705495,0.0306 -4.175178,-0.12748 -4.175178,-1.40553 v -0.76136 h -0.926041 -0.926042 v 0.76136 c 0,1.31184 -0.371245,1.40823 -5.423958,1.40823 -4.87136,0 -5.317064,-0.0971 -5.474221,-1.19208 l -0.08203,-0.57157 -0.396875,0.47746 c -0.218281,0.2626 -0.605234,0.70704 -0.859895,0.98765 l -0.463021,0.5102 H 78.211085 74.9448 l -0.437882,-0.48385 c -0.240835,-0.26612 -0.437882,-0.72848 -0.437882,-1.02748 0,-0.60942 -0.633035,-0.86066 -2.182813,-0.8663 l -0.992187,-0.004 v 0.81115 c 0,1.12975 -0.442124,1.83801 -1.133788,1.81627 -0.322302,-0.0101 -1.955222,-0.64019 -3.628712,-1.40012 z m 13.780727,-1.65116 0.351774,-0.42386 -0.536183,-1.49437 -0.536181,-1.49436 -1.495745,-0.0791 -1.495745,-0.0791 0.05891,1.79892 0.0589,1.79893 0.529167,0.17206 c 1.052954,0.34238 2.704785,0.23511 3.065102,-0.19905 z m 12.004884,-3.74332 0.181311,-4.16719 -0.422688,-1.96849 c -0.256876,-1.1963 -0.690152,-2.31916 -1.104508,-2.86241 l -0.681824,-0.89391 -1.692492,0.15042 c -0.930873,0.0827 -2.465321,0.21932 -3.409883,0.30352 l -1.717392,0.1531 0.630303,0.83909 c 0.703414,0.93642 1.031378,2.63254 1.517994,7.85055 0.32394,3.47364 0.435637,4.5868 0.471239,4.69636 0.01183,0.0364 1.377151,0.0661 3.034062,0.0661 h 3.012567 z m 10.267779,3.83645 c 0.0628,-0.1819 -0.19452,-1.19393 -0.57178,-2.24895 l -0.68594,-1.91823 h -1.387742 -1.387745 l 0.124823,2.18281 c 0.06865,1.20055 0.12692,2.21258 0.129489,2.24896 0.0026,0.0364 0.828186,0.0661 1.834705,0.0661 1.22676,0 1.86767,-0.10902 1.94419,-0.33073 z m -33.727985,-2.22289 -0.07645,-2.28904 -3.952479,-1.40935 c -2.173863,-0.77514 -4.002976,-1.35885 -4.064696,-1.29713 -0.20953,0.20953 -0.09281,3.69926 0.12637,3.77813 0.119839,0.0431 1.884764,0.83866 3.922056,1.76786 2.037291,0.92919 3.798098,1.70049 3.912905,1.714 0.114806,0.0135 0.174337,-1.0055 0.132291,-2.26447 z m 37.269915,0.68629 0.64509,-0.24526 -0.0399,-3.29392 -0.0399,-3.29391 2.1447,-2.80442 c 1.17959,-1.54243 2.14471,-2.92544 2.14471,-3.07333 0,-0.15275 -0.48578,-0.23377 -1.12448,-0.18756 l -1.12448,0.0814 -0.13229,0.98514 c -0.092,0.68524 -0.58004,1.53096 -1.60309,2.77813 l -1.4708,1.79298 -1.30733,0.0505 c -0.71903,0.0278 -3.42424,0.13005 -6.011591,0.22721 l -4.704265,0.17665 0.07406,3.21238 0.07406,3.21238 h 1.852083 1.852083 l 0.07903,-1.66376 0.07903,-1.66376 2.272282,0.0763 2.272278,0.0763 0.78887,2.07409 0.78887,2.07409 0.92296,-0.17315 c 0.50763,-0.0952 1.21325,-0.28352 1.56804,-0.41841 z m -30.651806,-1.77069 0.07997,-1.38906 h 2.348931 2.348934 l 0.513977,1.37784 c 0.955815,2.56227 1.110234,1.99848 1.114115,-4.06777 0.0021,-3.10444 0.07164,-5.89795 0.154792,-6.20779 l 0.151178,-0.56334 1.763437,-0.16064 c 0.969891,-0.0884 2.954065,-0.23113 4.409273,-0.31726 l 2.645833,-0.15661 0.864992,1.34825 c 0.475747,0.74153 0.969801,1.79264 1.097902,2.3358 0.168732,0.71545 0.240233,-0.16325 0.259487,-3.18893 l 0.02658,-4.1765 -0.580565,0.31071 c -0.513525,0.27483 -7.756853,1.11879 -11.538328,1.34439 l -1.396352,0.0833 0.03544,4.18659 c 0.0195,2.30263 -0.04456,4.26716 -0.142327,4.36563 -0.09777,0.0985 -2.043652,0.65528 -4.324173,1.23736 l -4.146404,1.05834 -3.175,-1.13496 c -3.330366,-1.1905 -4.22747,-1.83367 -4.026198,-2.88656 l 0.115684,-0.60516 -1.484326,0.83168 c -0.816379,0.45743 -1.581125,0.91657 -1.699436,1.02032 -0.11831,0.10376 1.78669,0.87777 4.233333,1.72004 2.446644,0.84226 4.587675,1.70164 4.757847,1.90973 0.197457,0.24145 0.2555,0.90061 0.160423,1.82182 l -0.148981,1.44348 2.749994,-0.0758 2.749993,-0.0758 z m 9.08318,1.39813 c 0.181166,-0.18116 -0.530492,-7.50027 -0.841618,-8.6557 -0.588658,-2.18611 -0.78091,-1.26629 -0.78091,3.73623 v 5.0427 h 0.749652 c 0.412311,0 0.805103,-0.0555 0.872876,-0.12323 z m 26.687886,-8.05079 c 0,-1.58328 -0.0928,-2.42202 -0.25053,-2.26379 -0.13779,0.13824 -0.91169,1.13548 -1.71979,2.21608 l -1.46926,1.96472 v 2.78294 2.78294 l 1.71979,-2.48387 1.71979,-2.48387 z m -40.74583,1.73975 c 0,-1.35595 0.705758,-3.41904 1.584677,-4.63235 0.437879,-0.60447 1.705632,-1.72528 2.817229,-2.49069 1.111597,-0.76541 2.254142,-1.57458 2.53899,-1.79817 l 0.517906,-0.40651 -2.131875,-0.81383 -2.131875,-0.81382 -3.251172,2.17949 -3.251172,2.17949 -1.004108,1.54321 -1.004108,1.5432 0.07807,1.31179 0.07807,1.31178 2.248958,0.85522 c 2.876162,1.09374 2.910417,1.0941 2.910417,0.0312 z m 4.981561,0.10195 c 1.648452,-0.42047 3.050808,-0.81811 3.116342,-0.88364 0.06554,-0.0655 0.08602,-1.80818 0.04552,-3.87253 l -0.07363,-3.75338 -2.078471,1.4289 c -3.618587,2.4877 -4.513764,3.6699 -4.83251,6.38193 l -0.173333,1.47479 0.499449,-0.006 c 0.274697,-0.003 1.848183,-0.34981 3.496635,-0.77028 z m 27.496039,-1.76603 1.12448,-0.13616 v -0.66534 c 0,-1.23039 -3.22141,-4.85014 -5.2586,-5.90886 -0.541607,-0.28147 -4.202451,-1.59546 -4.445031,-1.59546 -0.04727,0 -0.08595,1.96231 -0.08595,4.36068 v 4.36068 l 3.770312,-0.13969 c 2.073672,-0.0768 4.276329,-0.20097 4.894789,-0.27585 z m 4.55862,-3.35338 c 0.0154,-1.33064 -2.21645,-4.32023 -4.08923,-5.47767 -0.99589,-0.6155 -5.872814,-2.64977 -6.352498,-2.64977 -0.168021,0 -0.814306,0.43552 -1.436185,0.96783 -1.304737,1.11681 -1.394108,1.01562 1.929027,2.18401 1.291839,0.45419 2.829056,1.20618 3.416036,1.67108 1.48458,1.17581 4.15454,4.83885 4.16721,5.71718 l 0.0102,0.70469 1.17502,-1.32291 c 0.64626,-0.72761 1.17746,-1.5351 1.18046,-1.79444 z m -49.339344,-2.12533 c 4.067199,-1.40492 7.007032,-2.89021 23.415623,-11.83028 8.367448,-4.55893 16.999479,-9.21758 19.182291,-10.35256 l 3.96875,-2.06361 -6.624529,-0.006 -6.624528,-0.006 -1.312971,1.34556 c -3.319785,3.40219 -11.423459,7.90703 -18.021492,10.01817 l -4.240561,1.35682 -7.980146,5.97049 c -4.42689,3.31205 -7.980145,6.15198 -7.980145,6.37809 v 0.40762 l 1.785937,-0.15222 c 0.982266,-0.0837 2.976562,-0.5635 4.431771,-1.06617 z m 28.532972,-3.08295 c 5.715095,-0.55376 5.637527,-0.52839 8.0227,-2.62387 l 1.366092,-1.20017 -0.511572,-1.00277 -0.511575,-1.00277 H 93.65806 92.620319 l -0.08136,1.12448 -0.08136,1.12448 -5.813901,0.84383 -5.813904,0.84383 -2.303394,-0.80434 -2.303396,-0.80434 -1.341556,0.73016 c -0.737856,0.4016 -1.341557,0.80257 -1.341557,0.89105 0,0.0885 1.220391,0.62117 2.711979,1.18374 1.491589,0.56258 2.801191,1.10221 2.910226,1.19918 0.109038,0.097 0.585288,0.13803 1.058333,0.0912 0.473049,-0.0468 3.222424,-0.31396 6.109727,-0.59373 z m 4.976323,-4.49884 c 0.286953,-0.0131 0.413189,-2.47628 0.16311,-3.18282 -0.25518,-0.72095 -2.009468,-2.64583 -2.411352,-2.64583 -0.137091,0 -2.821598,1.39376 -5.965573,3.09725 l -5.716315,3.09726 1.79278,0.56043 1.792782,0.56044 5.086384,-0.73945 c 2.797514,-0.4067 5.163696,-0.74297 5.258184,-0.74728 z m 15.702819,-1.85951 c 0.64205,-0.65752 0.93776,-1.14924 0.7813,-1.29917 -0.13846,-0.13267 -1.32331,-0.91646 -2.633,-1.74174 l -2.38125,-1.50051 -6.114695,0.0877 -6.114695,0.0877 0.889338,1.04001 c 0.489138,0.572 1.032468,1.43581 1.207403,1.91958 l 0.318058,0.87958 5.386411,-0.0146 5.38641,-0.0146 0.91915,0.80703 c 0.50554,0.44387 1.00991,0.80703 1.12084,0.80703 0.11092,0 0.66655,-0.47608 1.23473,-1.05794 z m -46.020578,-3.6266 0.451209,-0.45121 -0.366164,-0.10737 c -0.892316,-0.26166 -2.332483,-1.48149 -2.657152,-2.25063 -0.195165,-0.46234 -0.353676,-1.67406 -0.352247,-2.69271 l 0.0026,-1.85208 0.870862,-1.60993 c 0.478974,-0.88547 1.489836,-2.21781 2.246359,-2.96076 l 1.375503,-1.35083 1.644706,-0.0777 c 0.98015,-0.0463 1.766463,0.0441 1.946042,0.22368 0.165735,0.16573 0.723279,2.90224 1.238986,6.08113 0.515707,3.17888 0.961321,5.81127 0.990253,5.84976 0.02893,0.0385 0.835908,-0.17196 1.793281,-0.46766 l 1.740679,-0.53764 -1.022178,-2.44276 c -0.562198,-1.34351 -2.153811,-5.12165 -3.536917,-8.39587 l -2.514739,-5.95313 -0.829792,-0.24258 c -1.496891,-0.4376 -4.840499,0.1928 -7.09676,1.33802 -3.368915,1.70998 -4.655159,3.50559 -5.104653,7.12614 -0.596535,4.80493 1.71294,9.79193 5.003326,10.80401 1.763851,0.54253 3.61763,0.52925 4.176803,-0.0299 z m 47.158678,-2.41995 c 1.0197,-0.41497 2.1929,-1.01887 2.6071,-1.34199 1.59968,-1.24793 3.83558,-3.52992 4.0746,-4.15859 0.31431,-0.8267 0.31865,-2.75241 0.007,-3.24415 l -0.23496,-0.3711 -1.94381,0.175 c -1.0691,0.0962 -2.59865,0.37778 -3.39902,0.62561 -1.4888,0.461 -11.033348,5.13626 -13.890623,6.80412 l -1.5875,0.92665 5.041826,0.008 5.041827,0.008 0.89655,0.66145 c 0.49311,0.36381 1.03969,0.66146 1.21462,0.66146 0.17493,0 1.15236,-0.33952 2.17206,-0.75449 z m -30.331952,-2.22426 c 5.53117,-2.79956 11.362933,-6.76157 11.320798,-7.69119 -0.0077,-0.17064 -3.478066,-3.28683 -7.711849,-6.92485 l -7.697784,-6.61458 -0.914326,0.0614 c -2.339017,0.15703 -6.671856,4.44277 -6.683195,6.61054 -0.0014,0.2595 1.514536,4.07346 3.368652,8.47546 l 3.371119,8.00365 h 0.576175 c 0.316896,0 2.28358,-0.86419 4.37041,-1.92042 z m -21.200161,-14.2894 c 2.344157,-1.18033 4.505196,-1.62863 6.904555,-1.43233 l 1.753907,0.14349 0.487368,-1.1064 c 0.268052,-0.60852 1.188994,-1.79101 2.046537,-2.62775 0.857543,-0.83675 1.396782,-1.52075 1.198309,-1.52 -0.198474,7.4e-4 -2.623049,0.28754 -5.387944,0.63733 l -5.027083,0.63598 -1.674231,1.81006 c -1.479589,1.59963 -3.749728,4.92154 -3.749728,5.487 0,0.11361 0.331349,-0.0723 0.736331,-0.41302 0.404982,-0.34077 1.625373,-1.06723 2.711979,-1.61436 z"
       id="path224" /><path
       style="fill:#a06db6;fill-opacity:1;stroke-width:0.386437"
       d="m 275.39758,556.37245 c -0.84039,-1.6132 -17.73376,-42.11318 -21.13538,-50.66976 -2.05916,-5.1797 -3.828,-10.0488 -3.93075,-10.82024 -0.43629,-3.27565 3.07161,-9.08376 9.1382,-15.13033 6.25408,-6.23345 11.35307,-9.26876 16.53858,-9.84507 l 2.41093,-0.26795 8.02286,6.88118 c 28.9474,24.82812 45.35291,39.23424 48.97083,43.00259 l 1.53141,1.5951 -3.07716,2.99094 c -8.53667,8.2975 -36.92811,25.20433 -52.97542,31.54636 -3.95554,1.56326 -4.98343,1.69744 -5.4941,0.71718 z"
       id="path861"
       transform="scale(0.26458333)" /><path
       style="fill:#a06db6;fill-opacity:1;stroke-width:0.386437"
       d="m 194.95739,620.6425 c 0,-1.61325 7.07209,-7.28486 39.16241,-31.40708 l 21.19309,-15.93081 6.24392,-1.97992 c 17.5566,-5.56712 24.21709,-8.14046 36.386,-14.05807 19.0448,-9.26128 31.89004,-17.6474 41.57155,-27.14034 l 4.86006,-4.76539 24.50914,0.004 24.50915,0.004 -9.66092,5.05373 c -13.02298,6.81246 -21.59745,11.42093 -58.7384,31.56977 -46.04248,24.97788 -53.78307,29.15785 -64.72817,34.95365 -33.41858,17.69627 -45.57496,22.32885 -63.08582,24.04087 -1.78521,0.17454 -2.22201,0.10687 -2.22201,-0.34424 z"
       id="path863"
       transform="scale(0.26458333)" /><path
       style="fill:#a06db6;fill-opacity:1;stroke-width:0.386437"
       d="m 201.14038,503.09461 c 0,-0.53142 2.43983,-4.61527 5.05156,-8.45545 3.31061,-4.86775 8.26732,-10.99398 12.4149,-15.34412 l 3.20791,-3.36458 17.58288,-2.14551 c 9.67058,-1.18003 18.42491,-2.24947 19.45407,-2.37653 1.73726,-0.21447 1.84337,-0.17966 1.48237,0.48642 -0.21386,0.39458 -2.25114,2.71723 -4.52729,5.16145 -4.62638,4.96797 -6.67288,7.77231 -8.13905,11.153 l -0.99413,2.29228 -7.79218,-0.19459 c -6.9612,-0.17384 -8.22217,-0.10544 -11.82412,0.64143 -6.8389,1.41806 -15.15327,5.11859 -21.94578,9.76754 -3.84935,2.63458 -3.97114,2.70754 -3.97114,2.37866 z"
       id="path865"
       transform="scale(0.26458333)" /><path
       style="fill:#694892;fill-opacity:1;stroke-width:0.386437"
       d="m 217.95038,568.0477 c -5.43039,-1.20973 -8.15537,-2.75123 -11.92224,-6.7443 -10.74922,-11.39474 -13.60446,-33.82147 -6.12392,-48.10088 4.26956,-8.15006 15.82352,-15.21029 29.44605,-17.99346 4.60951,-0.94175 11.38498,-0.92001 14.07735,0.0452 1.47678,0.52941 1.58038,0.69167 3.80185,5.95436 18.54711,43.93825 24.22999,57.52711 24.10865,57.64845 -0.38897,0.38897 -11.9619,3.63992 -12.38274,3.47843 -0.31269,-0.12 -1.34828,-5.37684 -2.91804,-14.81253 -3.53344,-21.23922 -5.17132,-29.13072 -6.22279,-29.98215 -0.91696,-0.74251 -1.9311,-0.82411 -8.87118,-0.71375 l -4.44402,0.0707 -4.63724,4.71523 c -4.95311,5.0364 -7.45172,8.37569 -10.5932,14.15738 l -1.966,3.61828 v 5.13095 c 0,5.61469 0.53588,10.44105 1.38492,12.47308 0.86168,2.06228 5.12351,5.96178 8.19529,7.49853 l 2.72224,1.36188 -1.06003,1.01557 c -0.58301,0.55856 -1.65442,1.18604 -2.38091,1.3944 -1.82807,0.52428 -7.42355,0.40633 -10.21404,-0.2153 z"
       id="path1005"
       transform="scale(0.26458333)" /><path
       style="fill:#694892;fill-opacity:1;stroke-width:0.386437"
       d="m 398.80955,560.05803 c -0.84647,-0.44076 -2.48475,-1.51554 -3.64064,-2.3884 l -2.10161,-1.58701 -18.87965,-0.19322 -18.87966,-0.19322 6.09591,-3.47793 c 11.11144,-6.33946 45.43278,-23.14636 51.19391,-25.06926 3.05175,-1.01859 9.12893,-2.12502 14.80908,-2.69618 5.34346,-0.5373 5.40941,-0.5344 6.04717,0.26657 0.8672,1.08914 1.09589,2.436 1.08495,6.38976 -0.0169,6.11386 -0.48271,7.00055 -7.23418,13.77083 -7.94103,7.96315 -11.17679,10.13437 -20.58005,13.80937 -5.83872,2.28189 -6.08101,2.32379 -7.91523,1.36869 z"
       id="path1007"
       transform="scale(0.26458333)" /><path
       style="fill:#ffffff;fill-opacity:1;stroke-width:0.386437"
       d="m 299.35723,591.44273 c -3.26034,-1.03067 -5.98851,-1.93458 -6.06262,-2.00868 -0.0741,-0.0741 2.24565,-1.42276 5.15501,-2.99701 2.90936,-1.57424 9.28936,-5.02714 14.17779,-7.67311 4.88842,-2.64596 12.24935,-6.54957 16.3576,-8.67468 8.64838,-4.47363 7.86998,-4.45379 11.78555,-0.30031 3.4821,3.69367 4.79961,5.85924 5.11876,8.4136 0.26359,2.10972 0.0102,7.23173 -0.43626,8.81967 -0.20867,0.74213 -1.57124,0.99123 -19.61644,3.58626 -10.66571,1.53381 -19.65305,2.77062 -19.97186,2.74847 -0.31881,-0.0222 -3.2472,-0.88355 -6.50753,-1.91421 z"
       id="path1715"
       transform="scale(0.26458333)" /><path
       style="fill:#ffffff;fill-opacity:1;stroke-width:0.386437"
       d="m 290.79373,603.26735 c -9.55466,-3.84303 -12.36598,-5.0831 -12.36598,-5.45463 0,-0.40297 9.02379,-5.59825 9.72373,-5.59825 0.19535,0 4.17401,1.32628 8.84147,2.9473 l 8.48627,2.9473 21.92985,-3.17514 c 12.06141,-1.74633 21.99105,-3.23527 22.06587,-3.30876 0.0748,-0.0735 0.28461,-1.92729 0.4662,-4.11957 0.18159,-2.19228 0.33775,-4.02944 0.34702,-4.08257 0.009,-0.0531 1.71656,-0.0966 3.79399,-0.0966 h 3.77716 l 1.80838,3.64043 1.80839,3.64044 -3.94318,3.42725 c -8.98157,7.80642 -10.18853,8.40184 -19.40066,9.57086 -4.82592,0.61241 -36.08821,3.70065 -36.97697,3.65277 -0.27907,-0.015 -4.94177,-1.81091 -10.36154,-3.99082 z"
       id="path1717"
       transform="scale(0.26458333)" /><path
       style="fill:#ffffff;fill-opacity:1;stroke-width:0.386437"
       d="m 323.85131,674.04247 c -0.12283,-0.9033 -0.74434,-7.03315 -1.38114,-13.6219 -2.27756,-23.56546 -3.14408,-28.09185 -6.2179,-32.47986 -0.96116,-1.37211 -1.39838,-2.31631 -1.14507,-2.47287 0.22538,-0.13929 5.06347,-0.65138 10.75132,-1.13797 5.68784,-0.4866 11.12407,-0.97202 12.0805,-1.07873 1.71207,-0.191 1.76083,-0.16445 3.15201,1.71593 2.79417,3.77674 3.92485,6.66897 5.70216,14.58591 l 1.12778,5.02368 -0.71195,15.45747 c -0.39157,8.50161 -0.72465,15.50095 -0.74017,15.55409 -0.0155,0.0531 -5.06056,0.0966 -11.21121,0.0966 h -11.18299 z"
       id="path1721"
       transform="scale(0.26458333)" /><path
       style="fill:#ffffff;fill-opacity:1;stroke-width:0.386437"
       d="m 262.5871,646.39035 c -1.13353,-0.18006 -16.30014,-5.80299 -16.7005,-6.19162 -0.15052,-0.14611 -0.39314,-2.37939 -0.53914,-4.96285 l -0.26546,-4.69719 3.63063,-5.65819 3.63063,-5.6582 12.2529,-8.28702 c 6.7391,-4.55786 12.35825,-8.28702 12.48702,-8.28702 0.12876,0 3.70313,1.32639 7.94304,2.94754 l 7.70894,2.94754 -2.99951,2.20731 c -1.64973,1.21402 -5.08627,3.66988 -7.63675,5.45746 -5.75768,4.03544 -11.55567,9.69893 -13.23753,12.93042 -1.79514,3.44916 -3.57486,9.09643 -3.80132,12.06206 -0.403,5.27769 -0.50969,5.5016 -2.47295,5.18976 z"
       id="path1723"
       transform="scale(0.26458333)" /><path
       style="fill:#ffffff;fill-opacity:1;stroke-width:0.386437"
       d="m 396.15035,633.9982 c -0.32153,-2.01075 -1.27271,-3.93719 -3.84003,-7.77729 -3.04488,-4.55441 -6.92699,-9.27863 -10.1066,-12.29896 -2.4228,-2.30141 -3.72897,-3.16289 -7.65255,-5.04719 -2.60211,-1.24966 -6.81787,-3.01003 -9.36835,-3.91192 -6.31143,-2.23185 -7.92196,-3.02038 -7.92196,-3.87868 0,-0.73099 3.99089,-4.34366 6.65917,-6.02807 1.35817,-0.85737 1.64989,-0.90688 2.93128,-0.49743 3.34449,1.06867 13.43369,5.28583 18.53454,7.74721 5.27227,2.5441 5.68704,2.83091 9.29847,6.42971 4.27979,4.26483 6.82248,7.65925 8.64193,11.53673 1.73904,3.70613 1.66081,4.84919 -0.54082,7.90185 -0.98801,1.36993 -2.82517,3.61543 -4.08259,4.99001 l -2.28621,2.49925 z"
       id="path1725"
       transform="scale(0.26458333)" /><path
       style="fill:#ffffff;fill-opacity:1;stroke-width:0.386437"
       d="m 371.79583,670.37132 c -0.14413,-2.92243 -0.36876,-6.66643 -0.49917,-8.32 l -0.23713,-3.0065 5.15686,0.10822 5.15686,0.10822 2.24197,6.56119 c 2.55101,7.4656 2.74256,8.91831 1.25072,9.4855 -0.54518,0.20728 -3.65003,0.37688 -6.89966,0.37688 h -5.90841 z"
       id="path1727"
       transform="scale(0.26458333)" /><path
       style="fill:#ffffff;fill-opacity:1;stroke-width:0.386437"
       d="m 290.81442,675.08978 c -1.15759,-0.323 -2.1358,-0.62558 -2.17379,-0.67238 -0.038,-0.0468 -0.15136,-3.05971 -0.25191,-6.69535 l -0.18282,-6.61024 2.74305,0.14876 c 1.50868,0.0818 3.98447,0.24363 5.50175,0.35959 l 2.7587,0.21083 1.94411,5.44623 c 1.86027,5.21134 1.91629,5.48396 1.29889,6.32085 -0.35487,0.48103 -1.07996,1.08809 -1.61132,1.34901 -1.50882,0.74093 -7.57341,0.82724 -10.02666,0.1427 z"
       id="path1729"
       transform="scale(0.26458333)" /><path
       style="fill:#d8d8d8;fill-opacity:1;stroke-width:0.386437"
       d="m 263.18909,664.75934 c 0.38087,-4.0673 0.29419,-7.82423 -0.20191,-8.7512 -0.47012,-0.87844 -6.19461,-3.32064 -15.86082,-6.76661 -13.21557,-4.7113 -18.24435,-6.73168 -17.94817,-7.21091 0.24378,-0.39445 10.32425,-6.14879 10.77147,-6.14879 0.17708,0 0.21949,0.63151 0.0942,1.40335 -0.68284,4.20786 3.01126,6.7199 17.51627,11.91127 3.93199,1.40726 7.7494,2.79024 8.48313,3.07327 1.24286,0.47943 2.04844,0.33201 11.78632,-2.15692 12.89197,-3.29508 21.14325,-5.63886 21.65643,-6.15153 0.24468,-0.24444 0.4307,-6.30852 0.50151,-16.34872 l 0.11255,-15.96016 4.79589,-0.25638 c 14.60807,-0.78095 41.08556,-3.95002 44.15309,-5.28466 l 1.64236,-0.71457 -0.0382,11.66798 c -0.021,6.4174 -0.17043,12.62442 -0.33203,13.79339 -0.16159,1.16897 -0.31829,1.85536 -0.34822,1.52531 -0.0906,-0.99893 -3.08296,-6.92283 -5.20657,-10.30722 l -1.99692,-3.18249 -2.15531,-0.008 c -3.59182,-0.0126 -27.41017,1.664 -30.36807,2.13766 -0.94458,0.15126 -1.3249,0.47828 -1.67521,1.44046 -0.30805,0.84611 -0.56094,7.86609 -0.7896,21.91914 -0.32195,19.78646 -0.46238,22.57195 -1.15973,23.00293 -0.37195,0.22987 -1.73971,-2.63613 -3.46263,-7.25563 l -1.26113,-3.38132 h -8.97269 -8.9727 l -0.24817,3.1881 c -0.1365,1.75346 -0.24922,4.09775 -0.2505,5.20954 -0.002,1.78562 -0.10375,2.04197 -0.8718,2.19747 -0.47821,0.0968 -5.10422,0.27013 -10.28003,0.38515 l -9.41055,0.20911 0.29773,-3.17945 z"
       id="path2282"
       transform="scale(0.26458333)" /><path
       style="fill:#d8d8d8;fill-opacity:1;stroke-width:0.386437"
       d="m 387.34755,663.21727 -2.95367,-7.82038 -8.58434,-0.31272 c -4.72139,-0.17199 -8.66376,-0.2333 -8.76082,-0.13624 -0.0971,0.0971 -0.26004,2.15064 -0.36217,4.56352 -0.10214,2.41288 -0.27554,5.12611 -0.38535,6.02941 l -0.19964,1.64235 h -6.69595 -6.69595 l -0.26688,-8.59821 c -0.14679,-4.72903 -0.20962,-10.07635 -0.13963,-11.88294 l 0.12725,-3.28471 22.55026,-0.84539 c 12.40264,-0.46496 22.58971,-0.8997 22.63794,-0.96609 0.0482,-0.0664 1.71129,-2.12052 3.69571,-4.56473 6.00794,-7.39999 8.11553,-11.32246 8.11553,-15.10392 0,-0.84425 0.21761,-1.07334 1.20761,-1.27134 1.98433,-0.39687 6.45374,-0.27675 6.73668,0.18105 0.34484,0.55797 -2.97924,5.40582 -9.96321,14.53036 l -5.69924,7.44606 -0.1019,12.62622 -0.1019,12.62623 -2.1254,0.73709 c -1.73873,0.603 -8.16316,2.20863 -8.88805,2.22136 -0.10627,0.002 -1.52237,-3.51578 -3.14688,-7.81698 z"
       id="path2284"
       transform="scale(0.26458333)" /><path
       style="fill:#a5a5a5;fill-opacity:1;stroke-width:0.386437"
       d="m 312.17051,650.66304 c 0.21555,-16.71292 0.3647,-19.41845 1.07048,-19.41845 0.66145,0 1.89173,5.36606 2.65794,11.5931 1.06215,8.63207 1.9419,18.53567 1.94381,21.88199 l 0.002,2.75336 -1.20762,0.24153 c -0.66419,0.13283 -1.99097,0.24152 -2.94841,0.24152 h -1.74079 z"
       id="path2631"
       transform="scale(0.26458333)" /><path
       style="fill:#a5a5a5;fill-opacity:1;stroke-width:0.386437"
       d="m 269.40041,642.55731 c 1.45581,-11.98636 3.98048,-15.06049 23.51872,-28.63725 l 2.31862,-1.61117 0.10151,13.98427 c 0.0558,7.69134 -0.0311,14.11442 -0.19322,14.2735 -0.86962,0.85347 -22.09258,6.12918 -24.67177,6.13304 l -1.57727,0.002 z"
       id="path2633"
       transform="scale(0.26458333)" /><path
       style="fill:#a5a5a5;fill-opacity:1;stroke-width:0.386437"
       d="m 354.94224,634.73394 c 0,-2.2749 0.11459,-9.62113 0.25465,-16.32495 l 0.25465,-12.18877 4.28598,1.4562 c 6.32222,2.14802 10.38182,3.70312 12.47451,4.77856 5.76877,2.96457 16.00864,13.56748 18.70607,19.36926 0.94953,2.0423 0.98125,4.70393 0.0594,4.98338 -1.23415,0.37411 -10.20357,0.97762 -20.57776,1.3846 -5.63232,0.22095 -11.41438,0.46387 -12.84903,0.53982 l -2.60845,0.13809 z"
       id="path2635"
       transform="scale(0.26458333)" /><path
       style="fill:#a5a5a5;fill-opacity:1;stroke-width:0.386437"
       d="m 405.95191,654.88957 v -10.14699 l 4.12134,-5.49308 c 2.26674,-3.02119 5.00096,-6.6099 6.07604,-7.9749 1.84208,-2.33885 1.96977,-2.42791 2.21635,-1.54575 0.1439,0.51484 0.27898,4.53685 0.30016,8.93778 l 0.0385,8.0017 -5.85162,8.42187 c -3.2184,4.63203 -6.08769,8.76488 -6.37621,9.18411 -0.44785,0.65076 -0.52458,-0.72193 -0.52458,-9.38474 z"
       id="path2637"
       transform="scale(0.26458333)" /><path
       style="fill:#a5a5a5;fill-opacity:1;stroke-width:0.386437"
       d="m 256.40085,674.03445 c -10.6161,-4.82135 -26.33687,-11.84161 -26.96104,-12.03971 -0.62106,-0.19712 -0.88856,-0.70265 -1.09888,-2.07667 -0.38046,-2.48568 -0.41348,-11.53072 -0.0434,-11.90343 0.40602,-0.40897 6.10308,1.37718 19.02209,5.96382 l 10.82023,3.8415 0.31153,5.93755 c 0.34117,6.50249 0.0892,10.78356 -0.63211,10.74185 -0.24876,-0.0144 -0.88703,-0.22359 -1.41838,-0.46491 z"
       id="path2639"
       transform="scale(0.26458333)" /><path
       style="fill:#ffffff;fill-opacity:1;stroke-width:0.386437"
       d="m 397.0445,582.89056 c -1.37086,-1.08988 -3.02245,-2.48105 -3.67019,-3.09149 l -1.1777,-1.10989 h -20.40233 -20.40232 l -0.22692,-0.86774 c -0.5476,-2.094 -3.34543,-6.91378 -5.65638,-9.74415 -1.3815,-1.692 -2.45628,-3.1319 -2.3884,-3.19978 0.0679,-0.0679 10.25641,-0.28976 22.64119,-0.49308 l 22.51777,-0.36967 4.68215,2.9605 c 2.57518,1.62827 6.90493,4.40613 9.62167,6.17301 l 4.93952,3.21251 -0.64421,1.26081 c -0.65554,1.28298 -6.4332,7.25058 -7.0198,7.25058 -0.17686,0 -1.44319,-0.89172 -2.81405,-1.98161 z"
       id="path2787"
       transform="scale(0.26458333)" /><path
       id="path2787-8"
       style="fill:#a5a5a5;fill-opacity:1;stroke-width:0.102609"
       d="m 93.085792,149.38127 c -1.370115,0.0284 -2.309751,0.053 -2.32006,0.0633 -0.01801,0.0181 0.26723,0.40049 0.633778,0.85009 0.613161,0.75209 1.355464,2.0328 1.500762,2.58922 l 0.06012,0.23043 h 2.35893 l -0.09899,-0.29375 c -0.183535,-0.54497 -0.887601,-1.83713 -1.500761,-2.58921 -0.365015,-0.44773 -0.649202,-0.82912 -0.633779,-0.8501 z" /></g></svg>
